<svg width="80" height="91" viewBox="0 0 80 91" fill="none" xmlns="http://www.w3.org/2000/svg">
<path d="M77.91 24.64C79.49 22.32 78.71 19.58 77.79 17.95C79.63 15.53 78.64 12.75 77.62 11.26C78.4 7.60997 78.15 6.11997 77.93 5.54997C77.5221 4.08138 76.6752 2.77246 75.5029 1.79845C74.3305 0.824443 72.8885 0.231837 71.37 0.0999734C66.81 -0.490027 64.23 1.62997 63.18 3.31997C61.905 3.03942 60.5844 3.03805 59.3088 3.31596C58.0332 3.59387 56.8328 4.14447 55.79 4.92997C54.7903 4.59007 53.7341 4.44743 52.68 4.50997C51.3402 4.78442 50.0813 5.36258 49 6.19997C47.7708 5.63781 46.4411 5.32835 45.09 5.28997C42.7524 5.21074 40.4791 6.06324 38.77 7.65997C37.3574 6.92871 35.7629 6.62301 34.18 6.77997C32.5825 6.917 31.0166 7.3051 29.54 7.92997C28.5689 7.06596 27.4019 6.45157 26.14 6.13997C24.477 5.81015 22.7578 5.90298 21.14 6.40997C20.1731 5.47496 18.9637 4.82949 17.6487 4.5467C16.3337 4.26391 14.9658 4.35511 13.7 4.80997C11.6688 4.34895 9.53951 4.63285 7.70002 5.60997C4.58002 7.16997 4.70002 11.06 4.85002 12.61C1.71002 13.91 2.90002 16.66 3.04002 17.78C2.4071 18.2231 1.87685 18.7971 1.48519 19.4631C1.09354 20.1291 0.849636 20.8715 0.770021 21.64C0.586061 22.5682 0.652086 23.5287 0.961338 24.4231C1.27059 25.3175 1.81196 26.1136 2.53002 26.73C1.51617 27.6724 0.891869 28.9603 0.78002 30.34C0.639453 31.2615 0.696013 32.2025 0.945964 33.1006C1.19592 33.9987 1.63357 34.8335 2.23002 35.55C2.36152 35.692 2.5018 35.8256 2.65002 35.95C2.42667 36.1024 2.21899 36.2766 2.03002 36.47C1.5015 37.0704 1.11547 37.7825 0.900748 38.5531C0.68603 39.3236 0.648179 40.1327 0.79002 40.92C0.946933 42.1319 1.43376 43.2773 2.19735 44.2314C2.96094 45.1854 3.97195 45.9114 5.12002 46.33C4.43002 47.75 3.47002 50.25 4.12002 52.24C4.87002 54.53 7.33002 55.95 8.85002 56.64C8.20702 57.8566 7.90045 59.2228 7.96198 60.5976C8.02351 61.9723 8.4509 63.3057 9.20002 64.46C10.85 67.23 13.66 68.29 17.02 67.46C18.32 70.91 23.79 71.87 24.02 71.91L24.66 72.02L25.02 71.47C26.37 69.41 24.51 65.4 23.67 63.81C24.7282 62.9179 25.4982 61.7321 25.8827 60.4025C26.2671 59.0729 26.2488 57.6592 25.83 56.34C24.83 53.63 23.37 52.45 21.74 52.05C22.2004 51.2855 22.4936 50.4323 22.6005 49.5464C22.7074 48.6604 22.6254 47.7619 22.36 46.91C21.74 44.49 18.98 43.14 17.47 42.56C17.9571 41.113 18.1376 39.5805 18 38.06C17.7969 37.2945 17.4308 36.5819 16.9269 35.9709C16.4229 35.3599 15.7929 34.865 15.08 34.52C15.8359 33.1531 16.0498 31.5518 15.6793 30.0344C15.3087 28.5171 14.3808 27.1946 13.08 26.33C14.0278 24.6815 14.3808 22.7576 14.08 20.88C15.0024 19.8009 15.4939 18.4192 15.46 17C16.7397 16.9317 17.9997 16.6547 19.19 16.18C20.2533 17.3942 21.7427 18.1532 23.35 18.3C25.2255 18.3598 27.0658 17.7817 28.57 16.66C29.179 17.3648 29.9225 17.9411 30.7571 18.3549C31.5916 18.7687 32.5003 19.0118 33.43 19.07C35.5952 19.0365 37.6758 18.2234 39.29 16.78C40.9347 17.9831 42.9797 18.506 45 18.24C46.8379 17.8778 48.5045 16.918 49.74 15.51C50.9224 16.387 52.4021 16.7641 53.86 16.56C55.1528 16.3037 56.322 15.6204 57.18 14.62C57.9816 15.247 58.9116 15.6894 59.9038 15.9159C60.8959 16.1423 61.9258 16.1471 62.92 15.93C63.6453 15.7298 64.3247 15.3901 64.92 14.93C64.9613 15.6097 65.1373 16.2745 65.4378 16.8856C65.7382 17.4967 66.157 18.0421 66.67 18.49C66.2635 19.4877 66.0798 20.5621 66.1316 21.6381C66.1834 22.7142 66.4695 23.766 66.97 24.72C66.4349 25.2486 66.0148 25.8821 65.736 26.5808C65.4572 27.2794 65.3258 28.0281 65.35 28.78C65.5398 30.4621 66.3276 32.0201 67.57 33.17C66.3564 34.3023 65.6078 35.8459 65.47 37.5C65.4164 39.1536 65.9045 40.7794 66.86 42.13C65.5804 42.981 64.6585 44.2731 64.27 45.76C63.9048 47.5898 64.1691 49.4894 65.02 51.15C64.06 51.6575 63.2886 52.4603 62.82 53.44C62.248 54.7846 62.1151 56.2754 62.44 57.7C61.6459 58.0321 60.9353 58.5362 60.3595 59.176C59.7837 59.8158 59.3569 60.5754 59.11 61.4C57.5294 61.3635 55.9735 61.7962 54.6387 62.6434C53.3038 63.4906 52.2499 64.7143 51.61 66.16C50.1603 66.0834 48.711 66.3187 47.36 66.85H47.28C45.28 65.77 38.28 62.85 33.28 69.94C32.0803 71.6501 31.4764 73.7073 31.5613 75.7945C31.6463 77.8817 32.4153 79.883 33.75 81.49C34.4729 82.468 34.9092 83.628 35.01 84.84C35.08 86.94 35.67 88.45 36.76 89.32C37.4058 89.7985 38.1972 90.0388 39 90H39.31C39.6187 90.0201 39.9242 89.9277 40.17 89.74C41.1 89.04 41.54 85.87 41.48 80.33C43.58 80.84 47.48 81.33 49.36 78.44V78.35H49.88C51.2122 78.396 52.5273 78.0389 53.6532 77.3252C54.7791 76.6115 55.6632 75.5745 56.19 74.35C58.0894 74.781 60.0811 74.4924 61.78 73.54C63.89 72.46 64.46 70.13 64.61 68.73C67.05 68.81 68.9 68.15 70.11 66.73C71.71 64.89 71.66 62.31 71.48 60.92C72.9237 60.5 74.1424 59.5257 74.87 58.21C75.6236 56.5495 75.7375 54.6693 75.19 52.93C76.3549 51.5744 77.1257 49.9253 77.4184 48.1621C77.7111 46.3989 77.5145 44.5892 76.85 42.93C77.7738 41.6791 78.4152 40.2428 78.73 38.72C78.9581 36.8283 78.58 34.913 77.65 33.25C78.4806 32.0504 79.0433 30.6862 79.3 29.25C79.3493 27.6032 78.8614 25.9851 77.91 24.64ZM47.13 77.94C45.01 79.62 40.87 78.05 40.82 78.03L39.44 77.52V78.99C39.52 82.57 39.34 86.8 38.94 87.99C38.6005 87.9852 38.2726 87.8653 38.01 87.65C37.6506 87.2426 37.3769 86.767 37.2051 86.2516C37.0333 85.7362 36.967 85.1915 37.01 84.65C36.8846 82.9839 36.2726 81.3913 35.25 80.07C34.2264 78.7916 33.6481 77.214 33.603 75.5769C33.5578 73.9399 34.0484 72.3328 35 71C35.6989 69.8602 36.6756 68.9165 37.8387 68.2571C39.0017 67.5977 40.3131 67.2443 41.65 67.23C42.8532 67.2447 44.0432 67.4821 45.16 67.93L47.24 69.08C48.7409 68.2803 50.4529 67.9659 52.14 68.18L53.25 67.5C53.6943 66.1592 54.5929 65.0157 55.7907 64.2671C56.9885 63.5184 58.4101 63.2118 59.81 63.4L60.91 62.55C61.0405 61.7787 61.3942 61.0626 61.9274 60.4903C62.4606 59.918 63.1499 59.5146 63.91 59.33L64.65 58C64.2159 56.7842 64.2159 55.4557 64.65 54.24C64.8633 53.8227 65.161 53.4543 65.5242 53.1582C65.8875 52.8621 66.3083 52.6447 66.76 52.52L67.3 51C67.3 51 65.68 48.48 66.3 46.17C66.4903 45.5129 66.8202 44.9047 67.2672 44.3869C67.7142 43.8692 68.2678 43.454 68.89 43.17L69.14 41.6C68.1259 40.478 67.56 39.0223 67.55 37.51C67.6413 36.774 67.8872 36.0657 68.2715 35.4315C68.6558 34.7973 69.1699 34.2515 69.78 33.83V32.25C69.78 32.25 67.57 30.59 67.47 28.55C67.4878 27.9659 67.6362 27.3932 67.9045 26.874C68.1727 26.3549 68.5539 25.9024 69.02 25.55L69.16 24.23C68.6174 23.3955 68.3104 22.4299 68.2717 21.4353C68.2329 20.4407 68.4639 19.4541 68.94 18.58L68.46 17.16C68.46 17.16 65.92 16.03 67.59 11.46L65.72 10.75C65.72 10.75 64.57 13.43 62.41 14C61.03 14.37 59.41 13.85 57.62 12.46L56.15 12.73C55.5503 13.6633 54.6166 14.3323 53.54 14.6C52.9338 14.6454 52.3249 14.5589 51.7552 14.3466C51.1856 14.1343 50.6686 13.8011 50.24 13.37L48.77 13.58C47.7793 14.9443 46.3252 15.9007 44.68 16.27C43.8036 16.3633 42.9174 16.2737 42.0774 16.0069C41.2374 15.7401 40.462 15.3019 39.8 14.72L38.47 14.83C38.47 14.83 36.2 17.22 33.47 17.09C32.6677 17.005 31.8937 16.7452 31.2026 16.3288C30.5115 15.9124 29.9201 15.3496 29.47 14.68L28 14.57C28 14.57 25.82 16.57 23.48 16.32C22.8255 16.2381 22.1961 16.0172 21.6339 15.6723C21.0716 15.3274 20.5896 14.8663 20.22 14.32L19 14.11C17.5575 14.7956 15.9639 15.1019 14.37 15L13.37 16.37C13.5386 17.0074 13.5279 17.6789 13.3391 18.3106C13.1503 18.9423 12.7907 19.5096 12.3 19.95L12.1 20.95C12.1 21.04 12.83 23.07 10.89 26.1L11.3 27.54C12.4074 28.1225 13.2591 29.0953 13.69 30.27C13.8528 30.9837 13.8639 31.7237 13.7227 32.442C13.5814 33.1603 13.2909 33.841 12.87 34.44L13.38 35.88C14 36.11 15.82 37.07 16.04 38.38C16.0742 39.8945 15.8056 41.4006 15.25 42.81L15.93 44.12C17.02 44.41 19.93 45.55 20.4 47.37C21.28 50.79 19.08 51.93 18.84 52.04L19.48 54C19.83 53.92 22.58 53.6 23.99 57.22C23.99 57.22 25.2 60.22 21.78 62.78L21.23 63.2L21.42 63.86L21.56 64.21C22.6129 65.894 23.2694 67.7951 23.48 69.77C21.99 69.37 19 68.33 18.71 66.3V66.06L18 65L17.3 65.24C15.3 65.92 12.86 65.92 11.2 63.13C8.95002 59.36 11 56.88 11.1 56.77L10.66 55.14C9.58002 54.8 6.66002 53.5 5.99002 51.54C5.46002 49.92 6.81002 47.14 7.38002 46.21L6.75002 44.72C6.75002 44.72 3.07002 43.84 2.75002 40.64C2.64811 40.1464 2.65526 39.6364 2.77099 39.1459C2.88672 38.6553 3.10823 38.196 3.42002 37.8C4.00641 37.2743 4.77289 36.9949 5.56002 37.02L5.64002 35.02C4.88212 34.9647 4.17068 34.6339 3.64002 34.09C3.24902 33.5751 2.96747 32.9857 2.8127 32.358C2.65792 31.7303 2.63319 31.0776 2.74002 30.44C2.74002 30.44 3.10002 27.95 4.39002 27.86L4.72002 25.86C3.95108 25.5585 3.32111 24.9828 2.95175 24.2441C2.58239 23.5054 2.49983 22.656 2.72002 21.86C2.85235 20.558 3.48299 19.3576 4.48002 18.51L4.94002 17.43C4.73205 17.0125 4.60986 16.5576 4.58066 16.0922C4.55146 15.6267 4.61585 15.1601 4.77002 14.72C4.9545 14.3625 5.2194 14.0528 5.54389 13.815C5.86837 13.5773 6.24359 13.4181 6.64002 13.35L6.88002 12.68C6.88002 12.68 6.11002 8.51997 8.57002 7.28997C10.032 6.46497 11.7602 6.24939 13.38 6.68997H14.18C15.2104 6.26909 16.3484 6.18859 17.4278 6.46025C18.5073 6.7319 19.4716 7.34147 20.18 8.19997L21.44 8.37997C21.44 8.37997 22.87 7.56997 25.82 8.03997C26.8954 8.38037 27.8752 8.96966 28.68 9.75997L29.82 9.92997C31.2398 9.25928 32.7663 8.84296 34.33 8.69997C35.7107 8.49733 37.1166 8.83003 38.26 9.62997L39.76 9.47997C40.403 8.73266 41.2115 8.1456 42.1211 7.76543C43.0307 7.38526 44.0165 7.22247 45 7.28997C46.2369 7.3334 47.4476 7.65831 48.54 8.23997L49.69 8.14997C50.6248 7.35783 51.7303 6.79306 52.92 6.49997C53.8493 6.49199 54.7719 6.65819 55.64 6.98997L56.64 6.76997C57.5534 5.98935 58.6522 5.45696 59.8309 5.22402C61.0096 4.99109 62.2284 5.06546 63.37 5.43997L64.59 4.82997C64.59 4.82997 66 1.41997 71.12 2.07997C72.2469 2.16477 73.3205 2.59403 74.1952 3.30955C75.07 4.02506 75.7035 4.99224 76.01 6.07997V6.14997L76.09 6.28997C76.09 6.28997 76.46 7.40997 75.59 11.29L75.79 12.14C76.02 12.43 78 15.03 75.86 17.14L75.76 18.43C75.85 18.56 78.04 21.65 75.95 23.92V25.22C76.41 25.79 77.57 27.59 77.43 28.99C77.1456 30.2899 76.5864 31.514 75.79 32.58V33.71C75.79 33.71 77.33 36.17 76.93 38.32C76.6009 39.7172 75.9388 41.014 75 42.1L74.85 43.2C74.85 43.2 77.23 48.2 73.41 51.94L73.18 53C73.18 53 74.1 55.45 73.18 57.24C72.8615 57.7766 72.4266 58.2348 71.9074 58.581C71.3881 58.9271 70.7979 59.1523 70.18 59.24L69.43 60.46C69.43 60.46 70.19 63.67 68.65 65.46C67.73 66.52 66.11 66.93 63.82 66.68L62.71 67.68C62.71 67.68 62.82 70.75 60.92 71.73C58.09 73.19 56.21 72.21 56.14 72.17L54.67 72.81C54.57 73.25 53.58 76.81 49.11 76.31H49.05C48.7463 76.2366 48.4487 76.1397 48.16 76.02C48.019 76.7495 47.6598 77.419 47.13 77.94Z" fill="#FEFFFF"/>
</svg>
