<svg width="91" height="90" viewBox="0 0 91 90" fill="none" xmlns="http://www.w3.org/2000/svg">
<path d="M81.15 15.52C69.36 7.17002 58.86 15.75 56.15 19.41C54.5858 21.5682 53.2455 23.8801 52.15 26.31L52 26.22C45.22 17.63 43.24 9.07002 46.27 1.38002L44.41 0.650024C42.02 6.70002 41.27 16.38 51.1 28.3L51.7 29C61.48 39.45 43.31 58.08 42.18 59.21C41.54 59.65 36.18 63.07 30.84 56.75C28.836 54.289 26.2388 52.3782 23.2929 51.1973C20.3469 50.0165 17.149 49.6045 14 50C11.5807 50.3237 9.28964 51.28 7.35823 52.7724C5.42682 54.2649 3.92347 56.2406 3 58.5C0.379999 64.86 0.289999 71 2.74 76.31C5.38 82 11 86.41 18.93 89L19.99 89.35L22.44 77.48L21.64 77.18C19.8196 76.5159 18.2103 75.3763 16.9793 73.8798C15.7483 72.3832 14.9405 70.5843 14.64 68.67C14.5105 67.8174 14.6304 66.9455 14.9853 66.1594C15.3401 65.3734 15.9148 64.7068 16.64 64.24C17.0648 63.9244 17.5616 63.7197 18.0855 63.6447C18.6093 63.5696 19.1437 63.6264 19.64 63.81C21.93 64.81 23.34 68.94 23.64 70.46V70.61C23.71 70.77 30.31 86.7 46.25 85.61C70 84 79.55 66.48 84.71 57.06C85.14 56.28 85.53 55.56 85.9 54.92C93 42.46 93.71 24.42 81.15 15.52ZM84.15 53.93C83.78 54.59 83.38 55.31 82.95 56.1C77.95 65.18 68.72 82.1 46.22 83.63C32.09 84.63 26.13 71.16 25.63 69.94C25.44 69.14 23.95 63.48 20.45 61.94C19.6654 61.626 18.8152 61.5119 17.9756 61.6079C17.136 61.7039 16.3334 62.007 15.64 62.49C14.5787 63.1368 13.7295 64.0794 13.1965 65.2022C12.6636 66.3249 12.4701 67.5789 12.64 68.81C13.01 72.87 16.04 76.81 20.13 78.68L18.47 86.68C11.54 84.21 6.86 80.42 4.54 75.4C2.33 70.63 2.43 65.03 4.82 59.19C5.62857 57.2697 6.92681 55.595 8.58506 54.3333C10.2433 53.0717 12.2035 52.2671 14.27 52C15.0141 51.8809 15.7664 51.8207 16.52 51.82C18.9786 51.8669 21.3982 52.4433 23.614 53.5097C25.8297 54.5762 27.7896 56.1077 29.36 58C36.13 66 43.36 60.79 43.47 60.73L43.58 60.64C44.44 59.8 64.16 40.14 53.58 27.97C54.6956 25.3585 56.0939 22.877 57.75 20.57C57.84 20.44 67.53 8.26003 80.03 17.11C91.6 25.37 90.8 42.23 84.16 53.93H84.15Z" fill="#FEFFFF"/>
</svg>
